<svg xmlns="http://www.w3.org/2000/svg" xmlns:xlink="http://www.w3.org/1999/xlink" width="443.6000244140625" height="119.20405527992797" viewBox="0 0 370 99.42628049182579" class="looka-1j8o68f"><defs id="SvgjsDefs18161"></defs><g id="SvgjsG18162" featurekey="hmhgWD-0" transform="matrix(0.0826663364856938,0,0,0.0826663364856938,10.001613024785735,35.0050830790627)" fill="#fe0122"><g xmlns="http://www.w3.org/2000/svg">    <path d="M1168.6,327.5c-57.1-39.5-153-26.2-216-12.4c-43,9.4-85.3,21.6-127.8,32.9c-46.1,12.2-62.5,18.5-103.4-8.2         c-66-43.1-131.5-87.2-197.1-131C641,168.3,757.7,129.4,876.2,94.1c57-17,118.3-42.6,177.4-49.6c38.7-4.5,41.1,12,60.6,41.4         c12.7,19.2,54.6,56.4,66.1,10.1c6.7-27-29.5-54.2-48.3-67.8c-78.5-56.8-177.1-14.8-260.5,11.8C764.4,74.3,658,110.8,551.3,146.5         c-23.5,7.9-59.9,26.9-84.9,22.2c-19.9-3.7-40.7-21.1-59.9-29.5c-48.1-20.9-99.9-31.4-151.2-41.1c-51.7-9.7-102.4-17.7-154.9-7.9         c-33.7,6.3-93.6,17.6-99.6,57.9c-10.8,72.3,87.7,117.2,144.9,119c52.7,1.7,108.6-9.9,160.8-16.7c44.7-5.8,101.3-23.1,146.4-18.6         c41.7,4.2,81.4,46.9,114.8,71.3c43.4,31.7,86.7,63.7,130,95.5c-41,18.4-81.9,37.2-123.1,55.3c-41.4,18.1-56.9,23.2-97.7,4.6         c-76.1-34.7-156.8-66.9-242.8-50.5c-75.9,14.4-51,84.9-1.1,113.9c32.6,18.9,45.9,18.7,81.3,22.7c34.6,4,66.1,27.5,102.1,32.2         c44,5.7,74.4-15.3,115.1-17.2c35.7-1.7,66.6,29.6,93.9,49.3c65.8,47.4,129.5,94.4,209.1,115.8c35.2,9.5,125.4,35.6,133.9-19.9         c3.9-25.2-13.4-58-35.6-68.5c-11.2-5.3-25.5-7.9-37.6-3.3c-25.8,9.7-18.1,13.6-10.4,38.7c-78.4,0-150.6-44.1-213.2-88.4         c-13.5-9.5-67-37.7-61.9-58.9c4.8-20,77.2-41.9,93.5-49.6c43.7-20.8,64.3-31,111.7-18c42.6,11.7,84.7,25.2,127.1,37.2         c72.8,20.6,156.7,31,225.4-11.6C1224.4,447.2,1222.7,364.9,1168.6,327.5z M184.6,233.2c-34.2,1.4-149.2-12.9-146.9-62.6         c2.6-54.5,140.7-48.2,176.2-44.9c36.2,3.3,70.8,13.5,105.3,24.7c27.9,9,82.7,15.1,80.9,46.2C329.4,210.2,256.6,230.2,184.6,233.2z          M297.5,510.3c-28.7-4.9-102.3-12.1-76.6-52c23-35.7,82.1-15.6,113.8-8.9c27.8,5.9,119.4,20.5,114.8,50         C400.4,515.7,348.5,519,297.5,510.3z M1179,412.1c-16.8,61.9-121.8,55.6-168.7,49.4c-35.6-4.8-70.4-15.3-104.8-25.3         c-14.7-4.3-40.8-6.1-52-15.1c-13-10.5-10.3-6.3-9.8-27c71.4-18.3,144-43.6,217.6-50.1C1100.7,340.5,1195.8,350.2,1179,412.1z"></path></g></g><g id="SvgjsG18163" featurekey="1RRcwp-0" transform="matrix(4.67202406731148,0,0,4.67202406731148,112.52476082396323,5.14483338769152)" fill="black"><path d="M14.34 20 l-2.66 0 l0 -9.52 l-3.72 5.08 l-3.7 -5.08 l0 9.52 l-2.66 0 l0 -14.24 l2.5 0 l3.86 5.3 l3.86 -5.3 l2.52 0 l0 14.24 z M19.726 20.18 c-1.26 0 -2.46 -0.48 -3.38 -1.38 c-0.9 -0.92 -1.4 -2.12 -1.4 -3.38 s0.5 -2.46 1.4 -3.38 c0.9 -0.9 2.1 -1.38 3.38 -1.38 c0.84 0 1.6 0.3 2.26 0.9 l0.1 0.08 l0 -0.8 l2.42 0 l0 9.16 l-2.42 0 l0 -0.72 l-0.1 0.1 c-0.72 0.7 -1.54 0.8 -2.26 0.8 z M19.726 13 c-1.28 0 -2.36 1.12 -2.36 2.42 c0 1.32 1.08 2.42 2.36 2.42 s2.36 -1.1 2.36 -2.42 c0 -1.3 -1.08 -2.42 -2.36 -2.42 z M28.752000000000002 20.08 c-0.28 0 -0.58 -0.04 -0.94 -0.1 c-1 -0.2 -1.94 -0.64 -2.68 -1.3 l-0.3 -0.24 l1.5 -1.66 l0.28 0.26 c0.88 0.74 1.6 0.88 2.06 0.88 c0.34 0 0.58 -0.04 0.82 -0.16 c0.3 -0.12 0.44 -0.32 0.44 -0.6 c0 -0.24 -0.14 -0.54 -1.32 -0.74 c-1.08 -0.22 -1.76 -0.44 -2.08 -0.62 c-0.42 -0.24 -0.76 -0.56 -1 -0.96 s-0.36 -0.84 -0.36 -1.34 c0 -0.52 0.16 -1.02 0.48 -1.48 c0.26 -0.38 0.64 -0.68 1.2 -0.96 c0.46 -0.22 0.98 -0.32 1.6 -0.32 c0.22 0 0.44 0.02 0.64 0.04 c0.88 0.14 1.76 0.52 2.48 1.08 l0.3 0.24 l-1.42 1.64 l-0.28 -0.22 c-0.7 -0.56 -1.3 -0.66 -1.66 -0.66 c-0.26 0 -0.5 0.04 -0.72 0.14 c-0.26 0.14 -0.4 0.36 -0.4 0.5 c0 0.28 0.2 0.48 1.24 0.72 c1.36 0.32 1.8 0.48 2.08 0.6 c0.56 0.32 0.8 0.58 1 0.84 c0.3 0.42 0.44 0.94 0.44 1.5 c0 0.58 -0.16 1.1 -0.46 1.52 s-0.7 0.78 -1.28 1.06 c-0.46 0.22 -1.06 0.34 -1.66 0.34 z M36.698 20.18 c-1.26 0 -2.46 -0.48 -3.38 -1.38 c-0.9 -0.92 -1.4 -2.12 -1.4 -3.38 s0.5 -2.46 1.4 -3.38 c0.9 -0.9 2.1 -1.38 3.38 -1.38 c0.84 0 1.6 0.3 2.26 0.9 l0.1 0.08 l0 -0.8 l2.42 0 l0 9.16 l-2.42 0 l0 -0.72 l-0.1 0.1 c-0.72 0.7 -1.54 0.8 -2.26 0.8 z M36.698 13 c-1.28 0 -2.36 1.12 -2.36 2.42 c0 1.32 1.08 2.42 2.36 2.42 s2.36 -1.1 2.36 -2.42 c0 -1.3 -1.08 -2.42 -2.36 -2.42 z M52.124 20 l-3.12 0 l-3.18 -4.06 l-0.82 0.84 l0 3.22 l-2.6 0 l0 -14.68 l2.6 0 l0 7.94 l2.52 -2.42 l3.54 0 l-3.44 3.28 z M54.870000000000005 20 l-2.6 0 l0 -9.16 l2.6 0 l0 9.16 z M53.57 9.74 c-0.86 0 -1.56 -0.7 -1.56 -1.54 c0 -0.42 0.16 -0.8 0.46 -1.08 c0.3 -0.3 0.68 -0.46 1.1 -0.46 c0.84 0 1.54 0.7 1.54 1.54 s-0.7 1.54 -1.54 1.54 z"></path></g></svg>